<mxfile host="app.diagrams.net" modified="2021-10-31T15:29:36.327Z" agent="5.0 (Macintosh; Intel Mac OS X 10_15_7) AppleWebKit/605.1.15 (KHTML, like Gecko) Version/14.1.1 Safari/605.1.15" etag="r-c5mDAl1fWZxUFF5NBr" version="15.6.2" type="github">
  <diagram id="yCyzbmIfVGpcMZrh-K9j" name="Page-1">
    <mxGraphModel dx="946" dy="645" grid="1" gridSize="10" guides="1" tooltips="1" connect="1" arrows="1" fold="1" page="1" pageScale="1" pageWidth="827" pageHeight="1169" math="0" shadow="0">
      <root>
        <mxCell id="0" />
        <mxCell id="1" parent="0" />
        <mxCell id="Ht7y0tQrbxiriJqToL8a-4" value="启动" style="edgeStyle=orthogonalEdgeStyle;rounded=0;orthogonalLoop=1;jettySize=auto;html=1;entryX=0.5;entryY=0;entryDx=0;entryDy=0;" parent="1" source="Ht7y0tQrbxiriJqToL8a-1" target="Ht7y0tQrbxiriJqToL8a-3" edge="1">
          <mxGeometry relative="1" as="geometry" />
        </mxCell>
        <mxCell id="Ht7y0tQrbxiriJqToL8a-1" value="&lt;span style=&quot;color: rgb(51 , 51 , 51) ; font-family: &amp;#34;microsoft yahei&amp;#34; , &amp;#34;stxihei&amp;#34; ; font-size: 14px ; text-align: left ; background-color: rgb(255 , 255 , 255)&quot;&gt;启动电源-引导程序BootLoader-linux内核启动-启动init进程&lt;/span&gt;" style="ellipse;whiteSpace=wrap;html=1;fillColor=#F7F7F7;" parent="1" vertex="1">
          <mxGeometry x="190" y="50" width="160" height="80" as="geometry" />
        </mxCell>
        <mxCell id="Ht7y0tQrbxiriJqToL8a-6" style="edgeStyle=orthogonalEdgeStyle;rounded=0;orthogonalLoop=1;jettySize=auto;html=1;" parent="1" source="Ht7y0tQrbxiriJqToL8a-3" target="Ht7y0tQrbxiriJqToL8a-5" edge="1">
          <mxGeometry relative="1" as="geometry" />
        </mxCell>
        <mxCell id="Ht7y0tQrbxiriJqToL8a-26" value="启动" style="edgeLabel;html=1;align=center;verticalAlign=middle;resizable=0;points=[];" parent="Ht7y0tQrbxiriJqToL8a-6" vertex="1" connectable="0">
          <mxGeometry x="-0.12" y="2" relative="1" as="geometry">
            <mxPoint as="offset" />
          </mxGeometry>
        </mxCell>
        <mxCell id="Ht7y0tQrbxiriJqToL8a-3" value="init进程" style="rounded=0;whiteSpace=wrap;html=1;" parent="1" vertex="1">
          <mxGeometry x="210" y="170" width="120" height="30" as="geometry" />
        </mxCell>
        <mxCell id="Ht7y0tQrbxiriJqToL8a-8" style="edgeStyle=orthogonalEdgeStyle;rounded=0;orthogonalLoop=1;jettySize=auto;html=1;entryX=0;entryY=0.5;entryDx=0;entryDy=0;" parent="1" source="Ht7y0tQrbxiriJqToL8a-5" target="Ht7y0tQrbxiriJqToL8a-7" edge="1">
          <mxGeometry relative="1" as="geometry">
            <Array as="points">
              <mxPoint x="450" y="255" />
              <mxPoint x="450" y="163" />
            </Array>
          </mxGeometry>
        </mxCell>
        <mxCell id="Ht7y0tQrbxiriJqToL8a-10" style="edgeStyle=orthogonalEdgeStyle;rounded=0;orthogonalLoop=1;jettySize=auto;html=1;entryX=-0.008;entryY=0.367;entryDx=0;entryDy=0;entryPerimeter=0;" parent="1" source="Ht7y0tQrbxiriJqToL8a-5" target="Ht7y0tQrbxiriJqToL8a-9" edge="1">
          <mxGeometry relative="1" as="geometry" />
        </mxCell>
        <mxCell id="Ht7y0tQrbxiriJqToL8a-56" value="默认启动" style="edgeLabel;html=1;align=center;verticalAlign=middle;resizable=0;points=[];" parent="Ht7y0tQrbxiriJqToL8a-10" vertex="1" connectable="0">
          <mxGeometry x="0.6172" relative="1" as="geometry">
            <mxPoint x="1" as="offset" />
          </mxGeometry>
        </mxCell>
        <mxCell id="Ht7y0tQrbxiriJqToL8a-20" style="edgeStyle=orthogonalEdgeStyle;rounded=0;orthogonalLoop=1;jettySize=auto;html=1;entryX=0;entryY=0.5;entryDx=0;entryDy=0;" parent="1" source="Ht7y0tQrbxiriJqToL8a-5" target="Ht7y0tQrbxiriJqToL8a-17" edge="1">
          <mxGeometry relative="1" as="geometry" />
        </mxCell>
        <mxCell id="Ht7y0tQrbxiriJqToL8a-21" style="edgeStyle=orthogonalEdgeStyle;rounded=0;orthogonalLoop=1;jettySize=auto;html=1;entryX=0;entryY=0.5;entryDx=0;entryDy=0;" parent="1" source="Ht7y0tQrbxiriJqToL8a-5" target="Ht7y0tQrbxiriJqToL8a-19" edge="1">
          <mxGeometry relative="1" as="geometry" />
        </mxCell>
        <mxCell id="Ht7y0tQrbxiriJqToL8a-27" value="fork" style="edgeLabel;html=1;align=center;verticalAlign=middle;resizable=0;points=[];" parent="Ht7y0tQrbxiriJqToL8a-21" vertex="1" connectable="0">
          <mxGeometry x="-0.8652" y="2" relative="1" as="geometry">
            <mxPoint as="offset" />
          </mxGeometry>
        </mxCell>
        <mxCell id="Ht7y0tQrbxiriJqToL8a-5" value="&lt;span style=&quot;color: rgb(51 , 51 , 51) ; font-family: &amp;#34;microsoft yahei&amp;#34; , &amp;#34;stxihei&amp;#34; ; font-size: 14px ; text-align: left ; background-color: rgb(250 , 250 , 250)&quot;&gt;Zygote 进程（孵化器）&lt;/span&gt;" style="rounded=0;whiteSpace=wrap;html=1;" parent="1" vertex="1">
          <mxGeometry x="197.5" y="240" width="145" height="30" as="geometry" />
        </mxCell>
        <mxCell id="Ht7y0tQrbxiriJqToL8a-16" style="edgeStyle=orthogonalEdgeStyle;rounded=0;orthogonalLoop=1;jettySize=auto;html=1;entryX=0;entryY=0.5;entryDx=0;entryDy=0;" parent="1" source="Ht7y0tQrbxiriJqToL8a-7" target="Ht7y0tQrbxiriJqToL8a-14" edge="1">
          <mxGeometry relative="1" as="geometry" />
        </mxCell>
        <mxCell id="Ht7y0tQrbxiriJqToL8a-57" value="开启系统服务" style="edgeLabel;html=1;align=center;verticalAlign=middle;resizable=0;points=[];" parent="Ht7y0tQrbxiriJqToL8a-16" vertex="1" connectable="0">
          <mxGeometry x="-0.22" y="3" relative="1" as="geometry">
            <mxPoint y="1" as="offset" />
          </mxGeometry>
        </mxCell>
        <mxCell id="Ht7y0tQrbxiriJqToL8a-7" value="&lt;span style=&quot;color: rgb(51 , 51 , 51) ; font-family: &amp;#34;microsoft yahei&amp;#34; , &amp;#34;stxihei&amp;#34; ; font-size: 14px ; text-align: left ; background-color: rgb(255 , 255 , 255)&quot;&gt;S y s t e m S e r v e r 进 程&amp;nbsp;&lt;/span&gt;" style="rounded=0;whiteSpace=wrap;html=1;labelBackgroundColor=#FFFFFF;fillColor=#F7F7F7;" parent="1" vertex="1">
          <mxGeometry x="480" y="147.5" width="200" height="30" as="geometry" />
        </mxCell>
        <mxCell id="Ht7y0tQrbxiriJqToL8a-22" style="edgeStyle=orthogonalEdgeStyle;rounded=0;orthogonalLoop=1;jettySize=auto;html=1;entryX=0;entryY=0.75;entryDx=0;entryDy=0;" parent="1" source="Ht7y0tQrbxiriJqToL8a-9" target="Ht7y0tQrbxiriJqToL8a-12" edge="1">
          <mxGeometry relative="1" as="geometry">
            <Array as="points">
              <mxPoint x="660" y="360" />
              <mxPoint x="800" y="360" />
              <mxPoint x="800" y="240" />
              <mxPoint x="880" y="240" />
            </Array>
          </mxGeometry>
        </mxCell>
        <mxCell id="Ht7y0tQrbxiriJqToL8a-52" value="打开app（启动第一个activty）" style="edgeLabel;html=1;align=center;verticalAlign=middle;resizable=0;points=[];" parent="Ht7y0tQrbxiriJqToL8a-22" vertex="1" connectable="0">
          <mxGeometry x="-0.5046" y="1" relative="1" as="geometry">
            <mxPoint as="offset" />
          </mxGeometry>
        </mxCell>
        <mxCell id="Ht7y0tQrbxiriJqToL8a-54" value="binder" style="edgeLabel;html=1;align=center;verticalAlign=middle;resizable=0;points=[];" parent="Ht7y0tQrbxiriJqToL8a-22" vertex="1" connectable="0">
          <mxGeometry x="0.2681" y="-2" relative="1" as="geometry">
            <mxPoint as="offset" />
          </mxGeometry>
        </mxCell>
        <mxCell id="Ht7y0tQrbxiriJqToL8a-9" value="桌面app进程" style="rounded=0;whiteSpace=wrap;html=1;labelBackgroundColor=#FFFFFF;fillColor=#F7F7F7;" parent="1" vertex="1">
          <mxGeometry x="600" y="390" width="120" height="30" as="geometry" />
        </mxCell>
        <mxCell id="Ht7y0tQrbxiriJqToL8a-33" style="edgeStyle=orthogonalEdgeStyle;rounded=0;orthogonalLoop=1;jettySize=auto;html=1;entryX=1;entryY=0.25;entryDx=0;entryDy=0;startArrow=none;" parent="1" source="Ht7y0tQrbxiriJqToL8a-43" target="Ht7y0tQrbxiriJqToL8a-5" edge="1">
          <mxGeometry relative="1" as="geometry" />
        </mxCell>
        <mxCell id="Ht7y0tQrbxiriJqToL8a-41" value="通知创建app进程" style="edgeLabel;html=1;align=center;verticalAlign=middle;resizable=0;points=[];" parent="Ht7y0tQrbxiriJqToL8a-33" vertex="1" connectable="0">
          <mxGeometry x="0.0022" relative="1" as="geometry">
            <mxPoint x="64" y="-15" as="offset" />
          </mxGeometry>
        </mxCell>
        <mxCell id="Ht7y0tQrbxiriJqToL8a-48" value="否" style="edgeLabel;html=1;align=center;verticalAlign=middle;resizable=0;points=[];" parent="Ht7y0tQrbxiriJqToL8a-33" vertex="1" connectable="0">
          <mxGeometry x="-0.9024" y="-2" relative="1" as="geometry">
            <mxPoint as="offset" />
          </mxGeometry>
        </mxCell>
        <mxCell id="Ht7y0tQrbxiriJqToL8a-12" value="ActivityManagerService（AMS）" style="whiteSpace=wrap;html=1;rounded=0;fillColor=#F7F7F7;labelBackgroundColor=#FFFFFF;" parent="1" vertex="1">
          <mxGeometry x="880" y="180" width="230" height="35" as="geometry" />
        </mxCell>
        <mxCell id="Ht7y0tQrbxiriJqToL8a-14" value="WindowManagerService（WMS）" style="whiteSpace=wrap;html=1;rounded=0;fillColor=#F7F7F7;labelBackgroundColor=#FFFFFF;" parent="1" vertex="1">
          <mxGeometry x="880" y="145" width="230" height="35" as="geometry" />
        </mxCell>
        <mxCell id="Ht7y0tQrbxiriJqToL8a-15" value="otherServer(其他系统服务)" style="whiteSpace=wrap;html=1;rounded=0;fillColor=#F7F7F7;labelBackgroundColor=#FFFFFF;" parent="1" vertex="1">
          <mxGeometry x="880" y="110" width="230" height="35" as="geometry" />
        </mxCell>
        <mxCell id="Ht7y0tQrbxiriJqToL8a-42" style="edgeStyle=orthogonalEdgeStyle;rounded=0;orthogonalLoop=1;jettySize=auto;html=1;" parent="1" source="Ht7y0tQrbxiriJqToL8a-17" edge="1">
          <mxGeometry relative="1" as="geometry">
            <mxPoint x="800" y="310" as="targetPoint" />
            <Array as="points">
              <mxPoint x="880" y="435" />
              <mxPoint x="880" y="310" />
              <mxPoint x="800" y="310" />
            </Array>
          </mxGeometry>
        </mxCell>
        <mxCell id="Ht7y0tQrbxiriJqToL8a-53" value="startActivity" style="edgeLabel;html=1;align=center;verticalAlign=middle;resizable=0;points=[];" parent="Ht7y0tQrbxiriJqToL8a-42" vertex="1" connectable="0">
          <mxGeometry x="-0.4521" y="-3" relative="1" as="geometry">
            <mxPoint as="offset" />
          </mxGeometry>
        </mxCell>
        <mxCell id="Ht7y0tQrbxiriJqToL8a-17" value="其他app进程" style="rounded=0;whiteSpace=wrap;html=1;labelBackgroundColor=#FFFFFF;fillColor=#F7F7F7;" parent="1" vertex="1">
          <mxGeometry x="600" y="420" width="120" height="30" as="geometry" />
        </mxCell>
        <mxCell id="Ht7y0tQrbxiriJqToL8a-19" value="其他app进程" style="rounded=0;whiteSpace=wrap;html=1;labelBackgroundColor=#FFFFFF;fillColor=#F7F7F7;" parent="1" vertex="1">
          <mxGeometry x="600" y="450" width="120" height="30" as="geometry" />
        </mxCell>
        <mxCell id="Ht7y0tQrbxiriJqToL8a-49" style="edgeStyle=orthogonalEdgeStyle;rounded=0;orthogonalLoop=1;jettySize=auto;html=1;entryX=0.167;entryY=0;entryDx=0;entryDy=0;entryPerimeter=0;" parent="1" source="Ht7y0tQrbxiriJqToL8a-43" target="Ht7y0tQrbxiriJqToL8a-9" edge="1">
          <mxGeometry relative="1" as="geometry" />
        </mxCell>
        <mxCell id="Ht7y0tQrbxiriJqToL8a-50" value="是" style="edgeLabel;html=1;align=center;verticalAlign=middle;resizable=0;points=[];" parent="Ht7y0tQrbxiriJqToL8a-49" vertex="1" connectable="0">
          <mxGeometry x="-0.7418" y="1" relative="1" as="geometry">
            <mxPoint y="1" as="offset" />
          </mxGeometry>
        </mxCell>
        <mxCell id="Ht7y0tQrbxiriJqToL8a-51" value="通知对应app进程创建activity" style="edgeLabel;html=1;align=center;verticalAlign=middle;resizable=0;points=[];" parent="Ht7y0tQrbxiriJqToL8a-49" vertex="1" connectable="0">
          <mxGeometry x="0.0157" y="-2" relative="1" as="geometry">
            <mxPoint as="offset" />
          </mxGeometry>
        </mxCell>
        <mxCell id="Ht7y0tQrbxiriJqToL8a-55" value="binder" style="edgeLabel;html=1;align=center;verticalAlign=middle;resizable=0;points=[];" parent="Ht7y0tQrbxiriJqToL8a-49" vertex="1" connectable="0">
          <mxGeometry x="0.6861" y="-1" relative="1" as="geometry">
            <mxPoint y="-1" as="offset" />
          </mxGeometry>
        </mxCell>
        <mxCell id="Ht7y0tQrbxiriJqToL8a-43" value="activity&lt;br&gt;对应app进程是否存在" style="rhombus;whiteSpace=wrap;html=1;labelBackgroundColor=#FFFFFF;fillColor=#F7F7F7;" parent="1" vertex="1">
          <mxGeometry x="620" y="177.5" width="130" height="80" as="geometry" />
        </mxCell>
        <mxCell id="Ht7y0tQrbxiriJqToL8a-44" value="" style="edgeStyle=orthogonalEdgeStyle;rounded=0;orthogonalLoop=1;jettySize=auto;html=1;entryX=1;entryY=0.25;entryDx=0;entryDy=0;endArrow=none;" parent="1" source="Ht7y0tQrbxiriJqToL8a-12" target="Ht7y0tQrbxiriJqToL8a-43" edge="1">
          <mxGeometry relative="1" as="geometry">
            <mxPoint x="880" y="197.5" as="sourcePoint" />
            <mxPoint x="342.5" y="247.5" as="targetPoint" />
          </mxGeometry>
        </mxCell>
        <mxCell id="Ht7y0tQrbxiriJqToL8a-45" value="&lt;span style=&quot;color: rgb(51 , 51 , 51) ; font-family: &amp;#34;microsoft yahei&amp;#34; , &amp;#34;stxihei&amp;#34; ; font-size: 14px ; text-align: left ; background-color: rgb(201 , 228 , 255)&quot;&gt;Socket&amp;nbsp;&lt;/span&gt;" style="edgeLabel;html=1;align=center;verticalAlign=middle;resizable=0;points=[];" parent="Ht7y0tQrbxiriJqToL8a-44" vertex="1" connectable="0">
          <mxGeometry x="-0.4204" y="2" relative="1" as="geometry">
            <mxPoint x="-269" y="1" as="offset" />
          </mxGeometry>
        </mxCell>
      </root>
    </mxGraphModel>
  </diagram>
</mxfile>
